# xmcd CD database file
#
# Track frame offsets:
#	150
#	11027
#	22087
#	33435
#	45395
#	57500
#	71367
#	83745
#	95370
#	108122
#	119580
#	128265
#	139642
#	151545
#	164282
#	175395
#
# Disc length: 2552 seconds
#
# Revision: 0
# Processed by: cddbd v1.4PL0 Copyright (c) Steve Scherf et al.
# Submitted via: Feurio! 1.64 - http://www.feurio.com
#
DISCID=c109f610
DTITLE=Brenda Lee - Brenda Lee-1996
DYEAR=1996
DGENRE=Country
TTITLE0=Sweet nothins´
TTITLE1=Dum dum
TTITLE2=Call me
TTITLE3=If you love me
TTITLE4=I´m sorry
TTITLE5=I want to be wanted
TTITLE6=All alone am I
TTITLE7=As usual
TTITLE8=Emotions
TTITLE9=Losing you
TTITLE10=My whole world is falling down
TTITLE11=Is it true ?
TTITLE12=Kansas City
TTITLE13=Too many rivers
TTITLE14=Fool No.1
TTITLE15=You can depend on me
EXTD=Laser,AAD,1996\r\nLittle Miss Dynamite", das praktisch jede Note enthält, 
EXTD=die Rock ´n´ RollRöhre Brenda Lee zwischen Juli 1956 und März 1962 - 
EXTD=produziert meist vom großen Owen Bradley - für die amerikanische Decca 
EXTD=aufnahm\r\nRock ´n´ Roll Röhre Brenda Lee zwischen Juli 1956 und März 
EXTD=1962 - produziert meist vom \r\ngroßen Owen Bradley - für die 
EXTD=amerikanische Decca aufnahm neben den LPalso auch die originalen 
EXTD=Single-Versionen,\r\nmit denen dies gerade mal 1,50 Meter großen 
EXTD=Energiebündel Hits in Serie \r\nha
EXTT0=
EXTT1=
EXTT2=
EXTT3=
EXTT4=
EXTT5=
EXTT6=
EXTT7=
EXTT8=
EXTT9=
EXTT10=
EXTT11=
EXTT12=
EXTT13=
EXTT14=
EXTT15=
PLAYORDER=
